<?xml version="1.0" encoding="utf-8"?>
<!-- Generator: Adobe Illustrator 22.1.0, SVG Export Plug-In . SVG Version: 6.00 Build 0)  -->
<svg version="1.1" id="Layer_1" xmlns="http://www.w3.org/2000/svg" xmlns:xlink="http://www.w3.org/1999/xlink" x="0px" y="0px"
	 viewBox="0 0 617 85" style="enable-background:new 0 0 617 85;" xml:space="preserve">
<style type="text/css">
	.st0{enable-background:new    ;}
	.st1{fill:#FFFFFF;}
	.st2{fill:#4EA9FB;}
	.st3{fill:#1061AD;}
	.st4{fill:#3399F2;}
</style>
<title>Group</title>
<desc>Created with Sketch.</desc>
<g id="full-color">
	<g id="SVoptionDark3.1-side" transform="translate(-201.000000, -471.000000)">
		<g id="Group-2" transform="translate(201.000000, 451.000000)">
			<g id="Group">
				<g class="st0">
					<path class="st1" d="M192.4,88.7c1,0.3,2,0.6,3,0.9c1,0.3,2.2,0.7,3.5,0.9c1.3,0.3,2.7,0.5,4.3,0.7c1.6,0.2,3.4,0.3,5.5,0.3
						c3.3,0,6.2-0.4,8.6-1.2c2.4-0.8,4.4-1.9,5.9-3.2c1.6-1.4,2.7-2.9,3.5-4.8c0.8-1.8,1.1-3.8,1.1-6c0-2.1-0.3-3.9-0.8-5.4
						c-0.5-1.5-1.4-2.9-2.7-4.1c-1.3-1.2-3.1-2.4-5.3-3.6c-2.3-1.1-5.1-2.4-8.5-3.7c-2.4-0.9-4.7-1.9-6.9-2.9s-4.1-2.3-5.8-3.8
						c-1.7-1.5-3-3.3-4-5.4c-1-2.1-1.5-4.7-1.5-7.8c0-5.6,2-10.2,6.1-13.6c4.1-3.5,10-5.2,17.7-5.2c1.5,0,3.1,0.1,4.6,0.2
						c1.6,0.1,3,0.3,4.4,0.5s2.6,0.5,3.7,0.7c1.1,0.3,2.1,0.5,2.8,0.7c-0.1,1-0.3,2.1-0.6,3.2c-0.2,1.1-0.5,2.1-0.9,3.1
						c-1.7-0.6-3.8-1.1-6.4-1.5c-2.6-0.5-5.2-0.7-7.7-0.7c-5.8,0-9.9,1.2-12.4,3.5c-2.5,2.4-3.7,5.3-3.7,8.9c0,1.9,0.4,3.5,1.1,4.9
						c0.8,1.4,1.8,2.6,3.2,3.6s3,2,4.8,2.9c1.9,0.9,3.9,1.7,6,2.5c2.9,1.2,5.6,2.4,8.2,3.6c2.5,1.2,4.7,2.7,6.5,4.4
						c1.8,1.7,3.2,3.6,4.3,5.9c1,2.3,1.6,5,1.6,8.2c0,3.6-0.6,6.8-1.9,9.6c-1.3,2.8-3.1,5.2-5.5,7.1c-2.4,1.9-5.2,3.4-8.6,4.4
						c-3.4,1-7.2,1.5-11.4,1.5c-4.1,0-7.5-0.3-10.2-0.9c-2.7-0.6-5.2-1.3-7.6-2c0.1-1,0.4-2.2,0.7-3.4
						C191.6,90.7,191.9,89.7,192.4,88.7z"/>
					<path class="st1" d="M275.9,62c0-4.6-1.1-7.9-3.2-10c-2.1-2.1-5.3-3.2-9.6-3.2c-2.8,0-5.3,0.2-7.6,0.6
						c-2.3,0.4-4.3,0.8-6.1,1.4c-0.3-0.6-0.6-1.5-0.9-2.7c-0.2-1.2-0.4-2.3-0.4-3.3c1.8-0.6,4-1,6.7-1.4c2.6-0.4,5.3-0.6,8.1-0.6
						c6.7,0,11.7,1.5,15,4.4c3.3,2.9,4.9,7.6,4.9,13.9v35c-2.4,0.5-5.4,1-8.8,1.5c-3.5,0.5-6.8,0.7-9.9,0.7
						c-6.4,0-11.5-1.3-15.2-3.8c-3.7-2.6-5.6-6.7-5.6-12.5c0-2.8,0.5-5.3,1.6-7.4c1.1-2.2,2.6-4,4.5-5.5c1.9-1.5,4.2-2.6,6.9-3.4
						c2.7-0.8,5.6-1.1,8.8-1.1c2.5,0,4.6,0.1,6.4,0.3c1.8,0.2,3.3,0.3,4.5,0.5V62z M275.9,71.2c-1.2-0.1-2.7-0.3-4.4-0.5
						c-1.8-0.2-3.4-0.3-5-0.3c-5.2,0-9.2,1-12.1,2.9c-2.8,1.9-4.3,4.7-4.3,8.3c0,2.3,0.4,4.1,1.3,5.5c0.9,1.4,2,2.4,3.4,3.2
						c1.4,0.7,2.9,1.2,4.6,1.5c1.7,0.2,3.3,0.4,5,0.4c2.1,0,4.2-0.1,6-0.3c1.9-0.2,3.7-0.5,5.5-0.8V71.2z"/>
					<path class="st1" d="M296.6,20.6c0.4-0.1,1-0.1,1.7-0.2c0.7,0,1.3-0.1,1.7-0.1c0.3,0,0.9,0,1.7,0.1c0.8,0,1.4,0.1,1.8,0.2v64.2
						c0,1.8,0.2,3.2,0.6,4.2c0.4,1,0.9,1.7,1.6,2.2c0.6,0.5,1.3,0.7,2.1,0.8c0.8,0.1,1.5,0.2,2.1,0.2c0.8,0,1.6-0.1,2.4-0.2
						c0.8-0.1,1.5-0.2,2.1-0.4c0.3,0.8,0.6,1.7,0.7,2.7c0.1,1,0.2,1.9,0.3,2.7c-1,0.3-2.1,0.6-3.3,0.7c-1.2,0.1-2.3,0.2-3.4,0.2
						c-1.5,0-2.9-0.2-4.4-0.5c-1.5-0.3-2.8-0.9-3.9-1.8c-1.1-0.9-2.1-2-2.8-3.5c-0.7-1.5-1-3.4-1-5.9V20.6z"/>
					<path class="st1" d="M326.5,71.5c0,7.1,1.6,12.3,4.9,15.6c3.3,3.3,8.1,5,14.7,5c2.6,0,5.1-0.2,7.3-0.7c2.3-0.4,4.5-1.1,6.6-1.8
						c0.3,0.8,0.6,1.7,0.8,2.8c0.2,1.1,0.3,2.1,0.4,3c-2,0.9-4.4,1.6-7.1,2.1c-2.7,0.5-5.7,0.7-8.8,0.7c-4.6,0-8.5-0.7-11.8-2
						c-3.3-1.4-6-3.2-8.1-5.7c-2.1-2.4-3.7-5.3-4.7-8.7c-1-3.4-1.5-7.1-1.5-11.1c0-3.9,0.5-7.5,1.4-10.9c0.9-3.4,2.4-6.4,4.3-8.9
						c1.9-2.6,4.4-4.6,7.3-6c3-1.5,6.6-2.2,10.7-2.2c3.5,0,6.6,0.6,9.3,1.8c2.7,1.2,5,2.8,6.8,4.9c1.8,2.1,3.2,4.6,4.2,7.6
						c0.9,2.9,1.4,6.2,1.4,9.6c0,0.6,0,1.4-0.1,2.4c0,1-0.1,1.8-0.2,2.5H326.5z M357.7,65.8c0-2.1-0.3-4.3-0.8-6.3
						c-0.6-2.1-1.4-3.9-2.6-5.5c-1.2-1.6-2.7-2.8-4.6-3.8c-1.9-1-4.1-1.5-6.8-1.5c-4.9,0-8.6,1.5-11.3,4.5c-2.7,3-4.3,7.2-4.9,12.6
						H357.7z"/>
					<path class="st1" d="M374.8,89.7c1.5,0.6,3.5,1.2,5.9,1.6c2.4,0.5,4.7,0.7,7,0.7c4.2,0,7.5-0.9,9.9-2.8
						c2.4-1.8,3.6-4.1,3.6-6.8c0-1.9-0.4-3.4-1.1-4.6c-0.7-1.2-1.7-2.2-2.9-3.1c-1.2-0.8-2.6-1.5-4.1-2c-1.5-0.5-3.1-1.1-4.7-1.6
						c-1.7-0.6-3.4-1.2-5.1-1.9c-1.7-0.7-3.2-1.6-4.5-2.7c-1.3-1.1-2.4-2.4-3.2-3.9c-0.8-1.5-1.2-3.4-1.2-5.7
						c0-4.2,1.5-7.7,4.6-10.3c3.1-2.6,7.9-4,14.3-4c2.7,0,5.3,0.2,7.9,0.7c2.5,0.5,4.5,1,5.9,1.6c-0.3,2-0.8,4-1.5,5.9
						c-1.5-0.5-3.3-1-5.6-1.5c-2.3-0.5-4.6-0.7-7-0.7c-4.2,0-7.2,0.7-9,2.2c-1.8,1.5-2.7,3.4-2.7,5.9c0,1.3,0.3,2.4,0.9,3.4
						c0.6,0.9,1.4,1.7,2.4,2.4c1,0.7,2.1,1.2,3.4,1.7c1.3,0.5,2.7,0.9,4.1,1.4c1.9,0.6,3.8,1.3,5.7,2c1.9,0.7,3.6,1.7,5.2,2.9
						c1.6,1.2,2.8,2.7,3.8,4.5c1,1.8,1.5,4.1,1.5,6.8c0,2.5-0.5,4.8-1.5,6.8c-1,2-2.4,3.8-4.2,5.2c-1.8,1.4-4,2.5-6.4,3.3
						c-2.5,0.8-5.2,1.1-8.2,1.1c-3.3,0-6.3-0.2-8.9-0.6s-4.7-1-6.3-1.7C373.2,93.9,373.9,91.8,374.8,89.7z"/>
				</g>
				<g class="st0">
					<path class="st2" d="M413.7,22.2c0.4-0.1,1-0.1,1.8-0.2c0.8,0,1.5-0.1,2.2-0.1c0.6,0,1.4,0,2.2,0.1c0.8,0,1.5,0.1,2,0.2
						l20.9,67.7l20.6-67.7c0.6-0.1,1.2-0.1,1.9-0.2c0.7,0,1.4-0.1,2-0.1c0.7,0,1.4,0,2.2,0.1c0.8,0,1.4,0.1,1.8,0.2L446.9,97
						c-0.5,0.1-1.2,0.1-2.1,0.2c-0.9,0-1.7,0.1-2.3,0.1c-0.7,0-1.5,0-2.3-0.1c-0.8,0-1.5-0.1-2-0.2L413.7,22.2z"/>
					<path class="st2" d="M483.6,49.8h-6.7c-0.1-0.3-0.1-0.8-0.2-1.2c0-0.5-0.1-1-0.1-1.6c0-0.6,0-1.1,0.1-1.7c0-0.6,0.1-1,0.2-1.4
						h13.5v53c-0.4,0.1-1,0.1-1.7,0.2c-0.7,0-1.3,0.1-1.7,0.1c-0.3,0-0.9,0-1.7-0.1c-0.8,0-1.4-0.1-1.8-0.2V49.8z M480.2,31
						c-0.1-0.6-0.1-1.4-0.2-2.3c0-0.9-0.1-1.7-0.1-2.3c0-0.6,0-1.2,0.1-2.1c0-0.8,0.1-1.5,0.2-2.1c0.6-0.1,1.4-0.1,2.3-0.2
						c0.9,0,1.7-0.1,2.3-0.1c0.6,0,1.2,0,2.1,0.1c0.8,0,1.5,0.1,2.1,0.2c0.1,0.6,0.1,1.2,0.2,2.1c0,0.8,0.1,1.5,0.1,2.1
						c0,0.6,0,1.4-0.1,2.3c0,0.9-0.1,1.7-0.2,2.3c-0.6,0.1-1.2,0.1-2.1,0.2c-0.8,0-1.5,0.1-2.1,0.1c-0.6,0-1.4,0-2.3-0.1
						C481.6,31.1,480.8,31,480.2,31z"/>
					<path class="st2" d="M503.9,89.7c1.5,0.6,3.5,1.2,5.9,1.6c2.4,0.5,4.7,0.7,7,0.7c4.2,0,7.5-0.9,9.9-2.8
						c2.4-1.8,3.6-4.1,3.6-6.8c0-1.9-0.4-3.4-1.1-4.6c-0.7-1.2-1.7-2.2-2.9-3.1c-1.2-0.8-2.6-1.5-4.1-2c-1.5-0.5-3.1-1.1-4.7-1.6
						c-1.7-0.6-3.4-1.2-5.1-1.9c-1.7-0.7-3.2-1.6-4.5-2.7c-1.3-1.1-2.4-2.4-3.2-3.9c-0.8-1.5-1.2-3.4-1.2-5.7
						c0-4.2,1.5-7.7,4.6-10.3c3.1-2.6,7.9-4,14.3-4c2.7,0,5.3,0.2,7.9,0.7c2.5,0.5,4.5,1,5.9,1.6c-0.3,2-0.8,4-1.5,5.9
						c-1.5-0.5-3.3-1-5.6-1.5c-2.3-0.5-4.6-0.7-7-0.7c-4.2,0-7.2,0.7-9,2.2c-1.8,1.5-2.7,3.4-2.7,5.9c0,1.3,0.3,2.4,0.9,3.4
						c0.6,0.9,1.4,1.7,2.4,2.4c1,0.7,2.1,1.2,3.4,1.7c1.3,0.5,2.7,0.9,4.1,1.4c1.9,0.6,3.8,1.3,5.7,2c1.9,0.7,3.6,1.7,5.2,2.9
						c1.6,1.2,2.8,2.7,3.8,4.5c1,1.8,1.5,4.1,1.5,6.8c0,2.5-0.5,4.8-1.5,6.8c-1,2-2.4,3.8-4.2,5.2c-1.8,1.4-4,2.5-6.4,3.3
						c-2.5,0.8-5.2,1.1-8.2,1.1c-3.3,0-6.3-0.2-8.9-0.6s-4.7-1-6.3-1.7C502.3,93.9,503,91.8,503.9,89.7z"/>
					<path class="st2" d="M551.3,49.8h-9c-0.1-0.3-0.1-0.8-0.2-1.4c0-0.6-0.1-1.1-0.1-1.7c0-0.6,0-1.1,0.1-1.6
						c0-0.5,0.1-0.9,0.2-1.2h9V34l6.4-6.3h0.4V44h14.4c0.1,0.3,0.1,0.8,0.2,1.2c0,0.5,0.1,1,0.1,1.6c0,0.6,0,1.1-0.1,1.7
						c0,0.6-0.1,1-0.2,1.4h-14.4v34.5c0,1.7,0.2,3.1,0.7,4.1c0.5,1,1,1.8,1.8,2.3c0.7,0.6,1.6,0.9,2.5,1.1c0.9,0.2,1.9,0.3,2.9,0.3
						c2.4,0,4.5-0.3,6.3-0.9c0.5,1.8,0.8,3.7,1,5.8c-2.5,0.8-5.4,1.1-8.7,1.1c-4,0-7.2-1.1-9.6-3.2c-2.5-2.1-3.7-5.6-3.7-10.3V49.8z
						"/>
					<path class="st2" d="M610,62c0-4.6-1.1-7.9-3.2-10c-2.1-2.1-5.3-3.2-9.6-3.2c-2.8,0-5.3,0.2-7.6,0.6c-2.3,0.4-4.3,0.8-6.1,1.4
						c-0.3-0.6-0.6-1.5-0.9-2.7c-0.2-1.2-0.4-2.3-0.4-3.3c1.8-0.6,4-1,6.7-1.4c2.6-0.4,5.3-0.6,8.1-0.6c6.7,0,11.7,1.5,15,4.4
						c3.3,2.9,4.9,7.6,4.9,13.9v35c-2.4,0.5-5.4,1-8.8,1.5c-3.5,0.5-6.8,0.7-9.9,0.7c-6.4,0-11.5-1.3-15.2-3.8
						c-3.7-2.6-5.6-6.7-5.6-12.5c0-2.8,0.5-5.3,1.6-7.4c1.1-2.2,2.6-4,4.5-5.5c1.9-1.5,4.2-2.6,6.9-3.4c2.7-0.8,5.6-1.1,8.8-1.1
						c2.5,0,4.6,0.1,6.4,0.3c1.8,0.2,3.3,0.3,4.5,0.5V62z M610,71.2c-1.2-0.1-2.7-0.3-4.4-0.5c-1.8-0.2-3.5-0.3-5-0.3
						c-5.2,0-9.2,1-12.1,2.9c-2.8,1.9-4.3,4.7-4.3,8.3c0,2.3,0.4,4.1,1.3,5.5c0.9,1.4,2,2.4,3.4,3.2c1.4,0.7,2.9,1.2,4.6,1.5
						c1.7,0.2,3.3,0.4,5,0.4c2.1,0,4.2-0.1,6-0.3c1.9-0.2,3.7-0.5,5.5-0.8V71.2z"/>
				</g>
				<g id="ike" transform="translate(0.000000, 20.000000)">
					<g id="angles">
						<g>
							<polygon id="Fill-1" class="st3" points="0,85 150,85 57.7,46.6 40.3,39.3 							"/>
							<polygon id="Fill-2" class="st2" points="40.3,39.3 0,85 57.9,46.6 							"/>
							<polygon id="Fill-3" class="st4" points="57.4,46.5 150,85 93.9,22 							"/>
							<polygon id="Fill-2_1_" class="st1" points="74.6,0 40.3,39.3 57.8,46.6 94.3,22.5 							"/>
						</g>
					</g>
				</g>
			</g>
		</g>
	</g>
</g>
</svg>
